<?xml version="1.0" standalone="no"?>
<!DOCTYPE svg PUBLIC "-//W3C//DTD SVG 20010904//EN"
 "http://www.w3.org/TR/2001/REC-SVG-20010904/DTD/svg10.dtd">
<svg version="1.0" xmlns="http://www.w3.org/2000/svg"
 width="1283.000000pt" height="1283.000000pt" viewBox="0 0 1283.000000 1283.000000"
 preserveAspectRatio="xMidYMid meet">
<metadata>
Created by potrace 1.14, written by Peter Selinger 2001-2017
</metadata>
<g transform="translate(0.000000,1283.000000) scale(0.100000,-0.100000)"
fill="#000000" stroke="none">
<path d="M5187 12810 c-63 -16 -114 -47 -237 -145 -190 -152 -206 -180 -197
-358 17 -341 230 -654 529 -774 115 -47 217 -33 331 46 24 16 69 41 99 54 149
66 228 207 228 405 0 116 -18 204 -59 301 -115 271 -349 463 -580 476 -42 2
-93 0 -114 -5z m192 -119 c219 -68 413 -319 449 -580 25 -174 -42 -325 -167
-379 -48 -20 -144 -20 -208 2 -190 63 -376 286 -429 514 -22 94 -15 230 15
297 62 139 189 193 340 146z m-495 -358 c-13 -10 -20 -10 -25 -1 -10 16 1 77
20 113 l16 30 3 -65 c2 -52 0 -67 -14 -77z m66 -222 c8 -17 6 -22 -11 -31 -11
-7 -22 -10 -24 -8 -6 6 -45 141 -45 155 0 9 8 21 17 28 15 11 19 6 35 -56 9
-37 22 -77 28 -88z m119 -217 c26 -33 26 -36 1 -51 -17 -12 -24 -6 -70 64 -54
84 -59 97 -33 111 14 8 23 0 49 -44 18 -30 42 -66 53 -80z m149 -154 c35 -29
49 -47 43 -53 -14 -14 -43 0 -109 53 -50 39 -52 43 -35 55 14 11 21 11 33 1 8
-7 39 -32 68 -56z m175 -101 c20 -7 37 -16 37 -22 0 -10 -55 -2 -98 14 -21 8
-23 12 -12 19 8 6 20 8 25 5 6 -2 27 -9 48 -16z"/>
<path d="M5219 12577 c-53 -28 -104 -92 -120 -150 -7 -23 -12 -76 -11 -117 1
-136 63 -273 171 -373 206 -190 453 -137 493 106 22 136 -38 309 -148 424 -54
56 -56 57 -66 36 -6 -13 -18 -25 -27 -28 -13 -4 -6 -17 36 -61 29 -30 69 -89
89 -130 31 -62 38 -88 42 -153 9 -152 -51 -233 -169 -233 -64 1 -127 30 -190
89 -206 191 -213 507 -12 539 l42 6 -17 34 c-19 42 -49 44 -113 11z"/>
<path d="M5394 12392 c-6 -4 -17 -18 -23 -31 -14 -25 -11 -54 17 -163 16 -65
16 -69 -2 -85 -17 -17 -19 -16 -52 21 -19 22 -42 64 -51 95 -18 59 -27 71 -55
71 -24 0 -23 -42 1 -95 15 -35 16 -42 4 -54 -12 -11 -11 -17 5 -44 11 -20 26
-31 37 -30 11 1 34 -11 51 -27 42 -37 69 -45 104 -30 53 22 56 70 16 218 -12
45 -12 54 0 67 8 8 21 12 28 9 19 -7 60 -70 77 -119 15 -44 25 -55 52 -55 21
0 22 28 2 76 -11 28 -12 39 -2 54 17 28 -12 75 -47 75 -13 0 -38 12 -53 28
-29 27 -83 37 -109 19z"/>
<path d="M7725 11866 c-242 -56 -460 -237 -566 -472 -44 -97 -61 -185 -57
-289 3 -75 9 -100 35 -155 41 -85 56 -102 198 -207 168 -126 173 -128 280
-128 78 0 100 4 170 32 102 41 218 118 307 202 163 153 259 355 262 546 1 120
-18 154 -172 306 -109 107 -136 129 -187 148 -75 29 -189 36 -270 17z m206
-112 c72 -21 149 -98 169 -169 31 -109 4 -255 -72 -383 -42 -73 -197 -227
-269 -270 -82 -48 -165 -74 -250 -80 -126 -8 -212 35 -264 129 -95 176 12 467
238 645 155 121 315 167 448 128z m314 -326 c8 -46 -2 -83 -18 -69 -8 6 -11
32 -9 72 4 66 16 65 27 -3z m-29 -182 c-4 -16 -17 -54 -31 -84 -24 -52 -26
-54 -43 -39 -18 16 -17 20 15 84 18 38 33 74 33 82 0 11 3 11 16 0 11 -9 14
-22 10 -43z m-106 -181 c14 -17 10 -24 -74 -112 -47 -49 -51 -52 -68 -36 -16
15 -14 20 50 89 37 40 70 73 73 74 4 0 12 -7 19 -15z m-180 -203 c0 -4 -32
-27 -71 -51 -64 -40 -73 -42 -95 -31 l-24 13 50 28 c27 15 62 36 77 47 20 15
33 18 45 11 10 -5 18 -13 18 -17z m-230 -121 c0 -19 -104 -28 -145 -12 -15 6
-5 11 45 23 62 14 100 10 100 -11z"/>
<path d="M7640 11649 c-115 -45 -226 -141 -284 -248 l-26 -49 30 -12 c17 -7
30 -17 30 -23 0 -7 17 17 38 52 103 175 307 274 432 209 132 -68 113 -273 -39
-427 -99 -102 -220 -152 -312 -131 -58 14 -106 54 -122 101 l-13 36 -33 -28
-34 -28 27 -45 c125 -214 503 -108 642 180 34 70 39 89 42 169 4 84 2 94 -25
145 -21 40 -42 63 -78 85 -43 26 -59 30 -134 32 -68 2 -97 -2 -141 -18z"/>
<path d="M7610 11488 c-19 -13 -43 -21 -55 -20 -30 4 -73 -43 -59 -66 8 -13 6
-24 -8 -47 -39 -64 -11 -135 53 -135 19 0 68 20 119 47 87 46 120 51 120 18 0
-27 -49 -83 -101 -117 -40 -25 -49 -37 -49 -60 0 -37 16 -36 71 4 27 20 54 31
71 30 33 -3 74 43 58 63 -8 10 -5 22 10 47 25 41 26 99 3 121 -39 34 -65 31
-166 -22 -97 -51 -127 -55 -127 -19 0 23 92 118 115 118 10 0 15 10 15 30 0
37 -20 39 -70 8z"/>
<path d="M6250 10735 c-507 -104 -786 -654 -575 -1132 l24 -53 -634 0 c-615 0
-636 -1 -689 -21 -73 -27 -148 -96 -183 -167 l-28 -57 0 -300 c0 -293 1 -301
23 -346 61 -123 162 -187 306 -196 l86 -6 0 -241 0 -241 -102 -33 c-279 -91
-557 -271 -756 -488 -198 -217 -342 -481 -412 -758 -56 -223 -54 -132 -57
-1974 -3 -1345 -6 -1712 -16 -1708 -114 48 -301 56 -439 18 -174 -47 -350
-154 -493 -297 -299 -300 -412 -703 -275 -980 16 -33 43 -77 60 -97 26 -31
264 -217 379 -295 l34 -23 -426 0 c-411 0 -427 -1 -437 -19 -16 -31 -12 -59
12 -75 20 -14 546 -16 5370 -16 5335 0 5348 0 5368 20 24 24 26 53 4 74 -13
14 -51 16 -260 16 l-244 0 0 105 0 105 100 0 c141 0 131 -27 128 368 -2 247
-6 324 -16 334 -10 10 -76 14 -272 16 l-259 3 -3 249 c-2 188 -6 252 -16 262
-8 8 -48 14 -107 16 l-95 4 0 254 0 254 253 0 c212 0 256 2 275 16 22 15 22
15 22 345 0 209 -4 337 -10 350 -10 19 -34 19 -1183 19 -899 0 -1176 -3 -1185
-12 -9 -9 -12 -92 -12 -310 l0 -298 -205 0 -204 0 -4 1517 c-3 1507 -3 1519
-25 1630 -125 647 -580 1170 -1194 1373 l-98 33 0 242 0 242 79 6 c138 9 244
75 298 185 l28 57 3 286 c3 273 2 288 -19 345 -30 80 -112 163 -192 193 -55
20 -74 21 -437 21 l-379 0 25 60 c43 106 57 186 57 315 0 182 -37 305 -140
462 -115 176 -305 304 -515 347 -92 19 -247 19 -338 1z m385 -128 c115 -38
198 -90 292 -184 66 -66 90 -99 127 -175 60 -122 80 -200 80 -323 1 -117 -20
-211 -67 -306 l-32 -64 -119 -3 -118 -3 34 41 c79 92 118 202 118 335 0 178
-77 332 -215 430 -63 45 -160 89 -179 82 -6 -3 -19 -19 -29 -36 -18 -30 -18
-31 0 -31 40 0 162 -69 214 -122 184 -184 185 -453 3 -635 l-62 -63 -251 0
-250 0 -60 56 c-71 66 -125 164 -143 262 -15 79 0 178 38 258 33 71 114 158
181 196 l54 31 -23 26 c-13 14 -24 28 -25 29 -1 2 -25 -9 -53 -24 -65 -35
-160 -136 -194 -207 -94 -192 -67 -431 67 -583 l39 -44 -116 0 -115 0 -27 45
c-69 118 -103 291 -85 426 23 169 83 290 206 415 66 66 98 89 175 128 125 61
196 76 340 72 90 -3 132 -9 195 -29z m1095 -1220 c0 -220 -158 -411 -401 -485
-228 -70 -891 -107 -2344 -132 -330 -5 -626 -12 -657 -15 l-58 -6 0 256 c0
282 3 301 63 364 18 18 50 42 72 52 38 18 104 19 1683 19 l1642 0 0 -53z m-60
-1206 c0 -211 3 -281 13 -289 6 -6 64 -27 127 -47 381 -121 716 -381 927 -720
105 -168 174 -340 220 -549 l27 -121 3 -1788 4 -1787 -182 0 c-156 0 -185 -2
-201 -17 -16 -14 -18 -33 -18 -160 l0 -143 -54 0 c-30 0 -58 -4 -61 -10 -11
-18 -20 -11 -40 33 -31 64 -148 178 -235 226 -92 50 -235 98 -325 107 -66 7
-67 7 -60 33 13 55 17 180 7 228 -18 82 -49 155 -97 226 l-44 66 74 67 c41 36
81 81 89 99 19 39 20 131 3 162 -10 18 -539 591 -671 726 -55 57 -106 74 -177
57 -44 -11 -74 -35 -311 -256 -181 -169 -267 -243 -278 -238 -64 25 -168 38
-310 37 -132 0 -169 -4 -250 -25 -76 -20 -176 -60 -241 -95 -4 -2 -147 186
-318 419 -173 236 -322 430 -338 440 -41 24 -94 31 -139 19 -44 -13 -834 -589
-867 -633 -23 -31 -34 -114 -19 -156 5 -16 92 -140 192 -277 100 -136 183
-252 186 -259 2 -6 -8 -19 -23 -28 -97 -58 -227 -217 -274 -335 -33 -84 -33
-246 -1 -319 l23 -51 -66 -66 c-47 -47 -76 -87 -103 -144 -36 -75 -37 -82 -36
-183 0 -58 10 -173 21 -256 31 -224 72 -290 228 -371 152 -78 344 -123 530
-123 88 0 200 12 245 25 10 3 22 -8 35 -30 59 -111 254 -209 499 -251 141 -25
373 -15 491 20 139 42 299 129 359 194 18 20 18 20 63 -14 59 -45 99 -65 205
-102 335 -118 700 -83 967 94 36 24 38 24 149 12 254 -27 511 40 703 181 106
78 159 174 159 286 l0 55 130 0 130 0 0 -139 0 -140 -48 -58 c-197 -236 -465
-393 -772 -455 -52 -10 -408 -13 -1755 -13 l-1690 0 -107 27 c-310 79 -564
246 -748 491 l-43 58 36 77 c82 177 119 360 98 478 -21 112 -59 169 -206 305
-33 30 -79 78 -102 107 l-43 51 0 1688 c0 1035 4 1724 10 1781 73 692 557
1268 1219 1451 41 11 78 26 83 33 4 7 8 138 8 291 l0 277 1495 0 1495 0 0
-279z m-2788 -3412 c13 -5 159 -195 325 -422 l301 -412 -38 -41 c-21 -23 -50
-59 -65 -81 l-26 -41 -70 36 c-63 33 -77 36 -152 36 -95 0 -167 -27 -233 -86
-35 -31 -47 -36 -114 -42 -110 -11 -199 -31 -303 -71 -86 -32 -93 -33 -108
-17 -9 9 -96 126 -193 259 -143 196 -177 248 -174 270 3 24 61 71 393 316 327
241 408 299 432 306 1 1 12 -4 25 -10z m2184 -302 c12 -7 170 -172 352 -367
277 -296 332 -360 332 -384 0 -24 -14 -42 -72 -96 l-72 -67 -81 62 c-76 58
-230 144 -282 157 -20 5 -23 13 -23 52 0 36 -6 52 -29 78 -26 29 -35 33 -81
33 -46 0 -55 -4 -81 -33 -16 -18 -29 -41 -29 -52 0 -19 -7 -20 -97 -20 l-98 0
-75 73 c-42 39 -101 86 -131 102 l-56 30 214 200 c199 186 267 246 282 245 3
-1 16 -6 27 -13z m-731 -476 c44 -12 116 -39 161 -60 82 -41 182 -118 167
-130 -4 -4 -31 -18 -60 -30 l-52 -24 -52 47 c-105 94 -262 143 -428 133 -53
-3 -119 -13 -148 -22 l-52 -15 11 -33 c6 -17 12 -33 13 -35 2 -2 25 3 53 11
172 52 383 11 499 -96 l43 -40 -35 -38 c-45 -50 -64 -91 -109 -225 -36 -108
-37 -111 -74 -123 -65 -21 -219 -25 -295 -7 -124 29 -227 98 -270 180 -28 55
-28 130 1 179 15 27 18 37 8 37 -7 0 -27 3 -44 6 -29 6 -30 4 -47 -46 -60
-180 81 -369 317 -425 70 -16 256 -20 304 -6 l32 9 -5 -42 c-8 -65 -17 -68
-188 -63 -113 4 -168 10 -225 26 -114 34 -216 88 -287 154 -167 157 -173 352
-13 507 31 30 82 70 113 89 68 40 202 87 289 100 95 15 280 6 373 -18z m3865
-257 l0 -196 -147 7 c-171 7 -390 23 -415 31 -16 5 -18 22 -18 180 l0 174 290
0 290 0 0 -196z m1588 69 l-3 -128 -99 -33 c-102 -33 -291 -76 -403 -90 l-63
-9 0 194 0 193 285 0 286 0 -3 -127z m-1378 -128 l0 -235 -50 0 -50 0 0 235 0
235 50 0 50 0 0 -235z m560 0 l0 -235 -250 0 -250 0 0 235 0 235 250 0 250 0
0 -235z m140 0 l0 -235 -40 0 -40 0 0 235 0 235 40 0 40 0 0 -235z m-5825 25
c22 -14 32 -16 42 -8 20 16 22 8 12 -46 -11 -60 -14 -63 -36 -44 -22 19 -94
56 -142 73 l-36 12 30 16 c41 22 94 21 130 -3z m1872 -18 c165 -56 276 -123
384 -232 149 -151 211 -332 163 -474 -35 -102 -158 -197 -292 -225 -292 -61
-691 112 -861 372 -85 131 -110 278 -64 378 43 96 130 166 247 201 49 14 88
17 196 14 120 -3 145 -6 227 -34z m-2131 -87 c136 -26 260 -101 313 -189 28
-47 45 -212 27 -264 -71 -199 -283 -373 -541 -443 -101 -27 -275 -36 -374 -19
-157 26 -296 127 -340 246 -26 69 -26 124 -1 207 95 306 545 533 916 462z
m4624 -480 l0 -195 -57 0 c-91 1 -405 18 -451 26 l-42 7 0 178 0 179 275 0
275 0 0 -195z m1590 67 l0 -129 -117 -36 c-131 -40 -211 -59 -323 -77 -41 -6
-87 -13 -102 -16 l-28 -6 0 196 0 196 285 0 285 0 0 -128z m-1380 -97 l0 -205
-50 0 -50 0 0 205 0 205 50 0 50 0 0 -205z m560 -35 l0 -240 -120 0 c-112 0
-120 1 -120 19 0 42 -24 51 -146 51 l-114 0 0 205 0 205 250 0 250 0 0 -240z
m140 0 l0 -240 -45 0 -45 0 0 240 0 240 45 0 45 0 0 -240z m-4962 101 c28 -18
52 -37 52 -41 0 -4 -18 -12 -39 -18 -36 -9 -42 -7 -64 17 -28 30 -46 61 -58
103 l-8 29 32 -28 c18 -15 56 -43 85 -62z m802 15 c0 -7 19 -43 41 -80 40 -67
41 -70 28 -108 l-13 -40 -18 24 c-49 61 -73 137 -62 195 6 30 24 38 24 9z
m-280 -186 c119 -34 223 -94 296 -169 91 -94 109 -134 109 -246 0 -81 -3 -95
-29 -143 -67 -120 -220 -225 -401 -273 -115 -31 -336 -31 -450 -1 -394 106
-556 408 -345 644 84 94 221 168 375 202 104 23 344 16 445 -14z m559 -151
l35 -25 -15 -38 -15 -38 -75 59 c-103 83 -105 85 -90 134 l12 41 57 -54 c31
-29 72 -65 91 -79z m-3577 110 c74 -16 161 -64 209 -116 264 -287 9 -899 -477
-1142 -360 -180 -686 -73 -745 245 -23 121 4 268 77 423 56 119 118 205 220
308 214 214 500 327 716 282z m4848 -150 c173 -44 324 -149 391 -271 31 -57
34 -71 34 -143 0 -100 -30 -168 -109 -247 -141 -139 -346 -207 -598 -195 -206
9 -368 70 -488 184 -91 85 -124 152 -124 255 -1 42 1 78 4 80 3 2 41 2 85 0
l80 -3 -3 -59 c-7 -124 64 -234 196 -303 91 -48 175 -67 297 -67 118 0 202 18
286 61 206 104 271 305 150 465 -73 97 -217 167 -373 182 l-74 7 19 44 19 43
66 -7 c37 -4 101 -16 142 -26z m-993 -103 l52 -17 -11 -32 c-6 -18 -14 -36
-18 -40 -16 -18 -242 85 -235 107 3 6 9 23 15 39 l10 27 67 -33 c38 -19 91
-42 120 -51z m3113 50 c0 -32 -4 -36 -55 -60 -30 -13 -79 -41 -108 -60 l-54
-36 -577 0 -576 0 0 95 0 95 685 0 685 0 0 -34z m-5951 -96 c33 -75 36 -84 22
-76 -16 10 -41 -73 -41 -138 0 -165 149 -302 372 -342 88 -16 210 -13 282 7
45 12 56 3 56 -47 0 -38 -5 -40 -121 -55 -168 -20 -386 22 -526 102 -80 46
-156 121 -194 191 -31 58 -34 70 -34 148 0 74 4 92 28 138 27 52 102 142 117
142 4 0 21 -32 39 -70z m7341 -79 l0 -129 -92 -31 c-109 -36 -292 -81 -329
-81 -18 0 -29 8 -37 25 l-12 25 123 0 c129 0 151 6 145 36 -3 17 -16 19 -155
22 l-152 3 -30 38 c-29 37 -31 43 -31 130 l0 91 285 0 285 0 0 -129z m-3916
105 c-14 -36 -124 -96 -175 -96 -16 0 -17 4 -8 27 12 33 26 42 59 43 19 1 110
28 127 39 1 0 0 -6 -3 -13z m-2466 -29 c7 -18 12 -37 12 -41 0 -13 -192 -86
-227 -86 -16 0 -45 61 -35 71 4 4 39 16 77 28 39 11 88 30 110 40 52 25 49 26
63 -12z m5702 -2 l0 -34 -45 27 c-24 15 -45 30 -45 35 0 4 20 7 45 7 45 0 45
0 45 -35z m-2958 11 c222 -40 363 -199 303 -344 -65 -156 -323 -249 -544 -197
-182 43 -315 184 -285 303 l9 36 87 18 c49 9 96 22 106 27 16 8 18 5 18 -26 0
-52 43 -86 151 -118 48 -14 98 -30 111 -35 34 -15 39 -40 13 -62 -29 -23 -136
-25 -207 -3 -46 14 -50 13 -68 -4 -10 -11 -16 -26 -13 -35 7 -17 67 -36 119
-36 30 0 37 -4 40 -22 3 -20 9 -23 53 -23 44 0 50 3 53 23 3 16 10 22 28 22
67 0 124 49 124 106 0 52 -32 81 -123 109 -142 44 -167 55 -167 75 0 46 95 65
195 38 42 -11 47 -11 67 10 14 13 19 25 13 31 -15 13 -75 31 -106 31 -21 0
-28 5 -31 23 -3 19 -9 22 -53 22 -44 0 -50 -3 -53 -21 -2 -14 -12 -24 -27 -26
-16 -4 -22 -1 -17 6 4 6 18 28 31 49 27 43 45 45 173 23z m-614 -13 c80 -5 92
-8 86 -22 -3 -9 -8 -23 -11 -32 -7 -23 -45 -29 -138 -19 -44 5 -85 9 -92 9 -8
1 -7 13 5 42 13 33 19 39 36 35 12 -4 63 -9 114 -13z m-2834 -49 c61 -15 68
-20 81 -52 18 -42 18 -42 2 -42 -47 0 -123 35 -163 75 -51 51 -57 72 -15 51
15 -8 58 -23 95 -32z m6132 23 c295 -85 489 -353 471 -651 -9 -161 -68 -295
-182 -410 -154 -157 -389 -228 -599 -182 -248 56 -450 259 -502 506 -59 279
98 580 364 702 137 63 307 76 448 35z m-6923 -87 c16 -35 21 -64 21 -127 0
-45 -3 -85 -7 -89 -3 -4 -24 8 -46 25 -37 30 -39 34 -33 69 4 20 7 76 7 124 0
86 0 87 18 65 10 -12 28 -42 40 -67z m1184 15 c9 -19 14 -38 10 -41 -3 -4 -56
-9 -116 -12 l-111 -5 -15 36 c-8 20 -15 39 -15 41 0 3 44 7 98 9 53 1 105 4
115 5 11 1 23 -10 34 -33z m1948 -14 c33 -10 97 -22 143 -26 45 -4 85 -11 88
-17 3 -5 3 -25 -1 -44 l-6 -36 -77 7 c-42 3 -112 13 -155 22 l-79 16 6 30 c3
16 6 38 6 48 0 23 1 23 75 0z m-2505 -35 c25 -31 109 -76 170 -92 36 -9 114
-20 174 -23 89 -5 111 -9 120 -23 17 -27 -4 -52 -53 -62 -30 -7 -66 -4 -129 8
l-87 17 -17 -21 c-10 -12 -16 -26 -13 -30 7 -11 60 -27 118 -35 38 -5 47 -10
47 -26 0 -16 7 -19 51 -19 43 0 52 3 56 20 3 12 17 23 32 26 84 17 127 61 118
119 -5 32 -3 35 21 41 15 3 32 7 39 9 6 2 -2 -24 -18 -58 -16 -34 -32 -83 -35
-109 -6 -44 -9 -49 -43 -59 -54 -17 -229 -23 -292 -10 -72 15 -166 60 -214
102 -63 56 -97 148 -79 217 7 26 17 28 34 8z m907 -103 c7 -69 7 -90 -3 -98
-22 -17 -34 -64 -34 -134 0 -85 32 -153 102 -216 106 -95 252 -141 418 -131
52 4 165 8 250 11 l155 4 -64 -30 c-121 -57 -198 -72 -371 -72 -139 0 -164 3
-243 27 -138 41 -222 89 -303 170 -90 91 -118 156 -112 261 6 91 42 162 121
237 32 32 63 58 67 58 4 0 12 -39 17 -87z m4603 63 c0 -3 -14 -25 -30 -50 -17
-25 -40 -65 -51 -90 l-20 -46 -529 0 -530 0 0 95 0 95 580 0 c319 0 580 -2
580 -4z m-2972 -183 l3 -40 -58 11 c-34 7 -58 17 -57 24 1 7 2 25 3 41 l1 28
53 -12 c51 -11 52 -12 55 -52z m202 23 c0 -7 3 -28 6 -45 l7 -31 -71 0 c-76 0
-82 5 -82 61 l0 29 70 0 c53 0 70 -3 70 -14z m-3393 -49 l22 -19 -26 -72 c-14
-39 -39 -97 -55 -129 l-29 -58 -44 38 c-25 21 -44 40 -42 43 21 36 97 202 103
223 7 31 3 32 71 -26z m2943 -42 c-19 -39 -94 -115 -114 -115 -3 0 -6 15 -6
34 0 28 6 38 33 55 17 11 48 36 67 56 42 43 50 31 20 -30z m-1144 -45 c52 -31
64 -47 64 -87 l0 -34 -30 16 c-69 36 -140 122 -140 171 0 12 7 9 33 -13 18
-16 51 -40 73 -53z m6654 -90 l0 -100 -460 0 -460 0 0 58 c-1 31 -5 76 -9 100
l-8 42 468 0 469 0 0 -100z m-2431 43 c-4 -27 -8 -72 -8 -100 l-1 -53 -360 0
-360 0 0 100 0 100 368 0 369 0 -8 -47z m-4329 -97 c41 -37 190 -116 219 -116
8 0 12 -3 8 -6 -8 -8 -112 23 -160 48 -56 28 -127 97 -148 143 -29 63 -22 75
10 20 16 -28 48 -68 71 -89z m1490 109 c52 -8 125 -15 162 -15 37 0 69 -4 73
-9 18 -31 -119 -42 -212 -17 -50 13 -52 13 -73 -9 -12 -13 -19 -28 -16 -33 7
-12 85 -32 126 -32 23 0 33 -6 40 -25 8 -22 16 -25 55 -25 39 0 45 3 51 25 9
37 39 32 51 -9 10 -31 9 -35 -11 -40 -40 -11 -161 -6 -224 9 -70 17 -152 54
-196 90 l-29 23 34 47 c26 36 38 45 54 40 11 -3 63 -12 115 -20z m-420 -44 c0
-37 -2 -39 -52 -61 -29 -13 -76 -31 -105 -41 -51 -17 -51 -17 -57 4 -14 53 -8
63 47 77 28 7 75 23 102 36 28 12 53 23 58 23 4 1 7 -16 7 -38z m-2212 -77
c27 -16 32 -24 32 -56 0 -21 -4 -38 -8 -38 -4 0 -29 13 -54 29 -44 28 -87 86
-103 140 -6 21 -2 20 46 -16 30 -22 69 -49 87 -59z m1424 72 c19 -8 65 -21
103 -29 69 -13 69 -14 77 -52 5 -21 6 -40 4 -42 -6 -7 -208 45 -218 55 -13 13
-22 82 -11 82 6 0 26 -6 45 -14z m2811 -67 c-15 -29 -47 -68 -70 -87 l-43 -35
0 39 c0 33 5 43 33 61 18 12 48 38 67 57 44 44 49 31 13 -35z m-1136 -47 c43
-28 52 -38 56 -70 2 -20 3 -38 2 -40 -5 -6 -62 27 -94 54 -31 26 -61 74 -76
124 -8 24 -8 24 26 -5 19 -17 57 -45 86 -63z m-1167 29 c0 -26 -5 -41 -16 -45
-9 -3 -67 -6 -130 -6 l-114 0 0 40 0 39 93 4 c50 1 109 4 130 5 37 2 37 2 37
-37z m481 -14 c99 -85 222 -120 401 -115 l128 3 36 -36 36 -37 -64 -11 c-227
-39 -487 13 -647 129 l-44 32 54 34 c30 18 56 34 57 34 2 0 21 -15 43 -33z
m-3091 -64 c0 -11 -101 -131 -153 -182 l-55 -54 -45 38 -44 37 66 67 c36 37
84 90 105 118 l39 52 44 -36 c23 -19 43 -38 43 -40z m950 -8 c51 -9 60 -17 60
-63 0 -30 -2 -32 -27 -26 -69 15 -179 46 -189 52 -6 4 -13 25 -16 47 l-6 41
67 -22 c36 -12 86 -25 111 -29z m3790 -18 c0 -29 -5 -36 -47 -56 -49 -24 -149
-61 -165 -61 -5 0 -8 19 -6 42 l3 41 60 17 c33 9 76 24 95 33 52 23 60 21 60
-16z m-3406 -76 c-3 -3 -63 -6 -132 -6 l-127 0 -3 43 -3 43 48 -6 c26 -3 84
-2 128 2 l80 8 7 -39 c4 -22 5 -42 2 -45z m2736 38 l60 -12 0 -39 0 -40 -45 6
c-25 4 -75 17 -113 29 l-67 22 -3 42 -3 42 56 -19 c30 -10 82 -24 115 -31z
m-1194 0 c10 -11 44 -37 76 -56 54 -34 58 -38 58 -74 0 -22 -2 -39 -5 -39 -12
0 -82 50 -107 76 -23 24 -58 90 -58 109 0 12 18 4 36 -16z m3284 -9 c0 -16 29
-102 55 -162 7 -17 -16 -18 -394 -18 l-401 0 0 100 0 100 370 0 c360 0 370 -1
370 -20z m2420 -75 l0 -95 -496 0 c-393 0 -495 3 -490 13 2 6 17 49 32 95 l26
82 464 0 464 0 0 -95z m-4126 59 c3 -9 6 -28 6 -43 0 -26 -3 -29 -52 -35 -73
-8 -196 -8 -202 2 -2 4 -7 24 -11 44 l-7 37 118 4 c66 1 124 4 130 5 7 1 15
-5 18 -14z m-2809 -85 c43 -23 45 -26 45 -67 l0 -43 -30 16 c-49 25 -97 73
-119 119 -31 63 -26 72 19 33 23 -19 61 -45 85 -58z m-1506 16 c117 -144 313
-300 471 -374 l65 -31 -605 0 -605 1 82 38 c100 48 205 115 298 191 72 59 182
171 211 215 9 14 19 25 23 25 4 0 31 -29 60 -65z m2614 25 c4 -14 -8 -31 -41
-62 l-46 -42 -10 33 c-8 27 -7 35 7 43 10 5 29 20 44 33 31 26 38 25 46 -5z
m452 -90 l100 -27 3 -38 3 -38 -39 6 c-22 2 -74 15 -115 27 l-75 22 -4 44 c-3
37 -1 43 12 38 8 -4 60 -19 115 -34z m690 10 l30 -12 -50 -25 c-48 -25 -149
-63 -167 -63 -5 0 -8 19 -6 41 3 41 4 42 58 60 57 18 85 18 135 -1z m-4198
-29 c18 -14 33 -29 33 -34 0 -9 -150 -108 -202 -132 l-36 -18 -46 38 -46 38
62 31 c35 17 90 50 123 73 33 22 65 38 70 35 6 -3 25 -17 42 -31z m2896 2 c6
-32 5 -34 -51 -62 -31 -16 -81 -36 -109 -44 l-53 -16 0 29 c0 15 -3 35 -6 44
-5 12 0 16 17 16 13 1 62 15 109 33 47 18 85 33 86 33 1 -1 4 -16 7 -33z
m2717 7 c0 -14 -7 -20 -22 -20 -20 0 -21 1 -3 20 10 11 20 20 22 20 1 0 3 -9
3 -20z m-3426 -36 c50 -13 94 -30 98 -37 4 -6 8 -25 8 -40 0 -28 -1 -29 -42
-22 -51 9 -170 44 -179 53 -4 4 -9 24 -12 46 -6 36 -5 38 16 31 12 -4 62 -18
111 -31z m1751 -15 c4 -22 5 -43 2 -45 -3 -3 -57 -8 -121 -11 -131 -7 -146 -1
-146 53 l0 33 118 4 c64 1 122 4 129 5 6 1 14 -16 18 -39z m-1323 -46 c3 -21
3 -40 1 -43 -8 -9 -150 -19 -205 -13 l-58 6 0 38 0 38 98 4 c53 1 111 4 128 5
30 2 32 -1 36 -35z m6038 -118 l0 -95 -517 0 -516 0 44 32 c49 35 149 136 149
149 0 5 189 9 420 9 l420 0 0 -95z m-1989 12 c41 -40 88 -83 104 -95 l30 -21
-652 -1 -653 0 0 95 0 95 548 0 548 0 75 -73z m-6992 -39 c-90 -28 -165 -24
-240 14 l-64 33 55 8 c30 4 89 16 130 25 l75 17 49 -40 49 -40 -54 -17z m5711
-13 l0 -75 -131 0 -131 0 78 40 c44 21 102 55 129 74 28 19 51 35 53 35 1 1 2
-33 2 -74z"/>
<path d="M6606 10219 c-25 -20 -28 -20 -67 -5 -53 22 -107 20 -147 -4 -89 -54
-94 -145 -19 -306 26 -55 47 -106 47 -113 0 -21 -48 -61 -73 -61 -38 0 -109
61 -147 128 -37 64 -57 75 -101 52 -29 -16 -23 -42 24 -112 41 -59 43 -65 30
-85 -18 -27 -10 -52 24 -77 25 -18 27 -18 57 -2 30 16 34 16 71 0 107 -44 214
19 223 132 4 48 -1 64 -47 161 -28 60 -51 118 -51 129 0 25 39 64 64 64 46 0
125 -71 152 -137 16 -37 18 -38 64 -22 30 11 32 14 26 47 -3 19 -18 52 -34 72
-26 32 -28 38 -16 55 20 27 17 49 -8 72 -37 33 -44 34 -72 12z"/>
<path d="M5862 8084 c-55 -19 -77 -33 -187 -119 -136 -107 -164 -134 -192
-189 -72 -140 -12 -436 132 -652 124 -186 340 -333 490 -334 80 0 120 12 195
61 35 22 87 51 116 64 175 77 265 287 223 521 -54 308 -280 580 -539 649 -71
19 -183 18 -238 -1z m258 -123 c160 -61 316 -241 386 -446 35 -103 40 -249 10
-335 -24 -69 -103 -150 -162 -168 -219 -64 -499 145 -607 455 -26 76 -31 102
-31 193 -1 95 2 111 27 165 35 75 68 111 132 142 42 20 61 23 120 20 39 -3 95
-14 125 -26z m-518 -274 c-3 -53 -8 -70 -23 -78 -17 -9 -19 -6 -19 28 0 34 35
132 44 122 1 -2 1 -35 -2 -72z m32 -228 c23 -78 24 -85 8 -97 -14 -10 -18 -9
-28 10 -7 13 -19 50 -28 83 -14 54 -14 61 1 77 9 10 18 17 19 15 2 -2 15 -41
28 -88z m110 -238 c52 -78 53 -82 34 -92 -17 -9 -24 -7 -44 17 -13 16 -37 55
-54 86 -28 53 -29 57 -13 67 10 5 19 8 21 7 1 -2 27 -40 56 -85z m159 -182
c67 -56 73 -64 58 -73 -14 -9 -57 15 -109 59 -34 30 -40 40 -31 51 6 8 13 14
16 14 2 0 32 -23 66 -51z m197 -119 l55 -19 -42 -1 c-46 0 -96 18 -87 31 7 12
13 12 74 -11z"/>
<path d="M5940 7869 c-85 -34 -140 -122 -148 -234 -6 -93 11 -169 59 -264 126
-253 412 -348 548 -184 112 135 64 410 -99 573 l-41 41 -27 -27 -27 -27 47
-49 c95 -97 153 -264 129 -371 -61 -272 -423 -134 -507 193 -37 147 25 274
140 287 l42 5 -15 34 c-13 27 -22 33 -46 33 -16 0 -41 -5 -55 -10z"/>
<path d="M6097 7670 c-34 -27 -36 -74 -7 -177 21 -77 19 -103 -10 -103 -32 0
-66 51 -111 168 -6 15 -17 22 -34 22 -30 0 -31 -13 -6 -81 16 -40 17 -55 9
-69 -15 -24 14 -70 43 -70 12 0 37 -13 56 -30 64 -56 143 -31 143 46 0 20 -10
72 -22 116 -20 75 -20 80 -4 96 16 16 19 15 51 -20 18 -20 39 -56 46 -80 14
-50 17 -54 47 -63 19 -6 22 -3 22 23 0 16 -5 43 -11 61 -8 22 -8 35 -1 44 8 9
6 22 -5 45 -12 25 -21 32 -39 30 -14 -2 -33 7 -51 24 -40 39 -81 45 -116 18z"/>
<path d="M4970 6958 c-40 -21 -71 -61 -323 -428 -153 -223 -285 -419 -293
-437 -29 -65 -12 -155 37 -199 35 -31 1897 -1305 1939 -1326 47 -25 108 -23
159 5 36 19 78 76 323 432 155 226 288 428 295 450 18 49 10 108 -19 151 -21
31 -1893 1322 -1966 1356 -51 24 -99 22 -152 -4z m740 -528 l632 -433 29 -66
c16 -36 33 -73 37 -81 7 -12 200 -152 261 -189 12 -7 12 -15 -2 -50 -34 -83
-11 -171 58 -228 l37 -31 -130 -189 c-111 -161 -133 -188 -153 -186 -21 2 -30
-10 -77 -110 -29 -62 -61 -122 -70 -135 l-18 -23 -914 627 c-503 344 -923 633
-932 642 -10 8 -18 26 -18 39 0 25 523 801 563 836 12 10 31 17 42 14 12 -2
307 -199 655 -437z"/>
<path d="M5013 6311 c-40 -25 -53 -49 -53 -100 0 -31 7 -49 29 -73 26 -29 35
-33 81 -33 46 0 55 4 81 33 86 96 -29 241 -138 173z"/>
<path d="M5604 6082 c-88 -36 -137 -82 -185 -172 -21 -39 -24 -59 -24 -145 0
-96 1 -103 36 -165 134 -243 490 -229 605 24 23 50 28 75 29 141 0 71 -4 88
-33 147 -39 80 -102 139 -178 168 -69 25 -190 27 -250 2z m290 -91 c12 -13 15
-27 11 -40 -4 -15 1 -31 19 -52 33 -39 33 -66 -1 -82 -22 -10 -27 -9 -31 3 -7
22 -77 86 -100 92 -28 8 -62 -18 -62 -45 0 -12 21 -53 45 -91 52 -81 60 -137
24 -187 -27 -38 -85 -56 -130 -40 -27 9 -34 9 -41 -4 -21 -37 -86 4 -75 46 5
17 -3 33 -28 61 -38 41 -45 72 -19 82 24 9 54 7 54 -4 0 -18 60 -78 94 -94 38
-18 61 -13 77 16 9 16 4 31 -24 76 -73 120 -83 164 -50 212 29 43 45 50 106
48 33 -1 62 3 69 10 18 18 43 15 62 -7z"/>
<path d="M6325 5443 c-33 -8 -73 -53 -79 -88 -15 -78 48 -143 127 -132 52 7
87 42 94 94 7 53 -18 100 -62 119 -35 14 -45 15 -80 7z"/>
<path d="M7918 6089 c-151 -17 -261 -72 -378 -189 -135 -134 -192 -271 -192
-459 0 -204 68 -360 216 -498 72 -68 192 -133 291 -158 76 -19 241 -19 323 0
226 53 418 246 477 480 21 85 19 235 -5 329 -46 181 -178 346 -340 425 -132
64 -255 86 -392 70z m231 -125 c97 -28 172 -73 246 -148 114 -115 165 -236
165 -391 0 -153 -51 -276 -160 -386 -105 -107 -238 -162 -386 -161 -151 0
-279 55 -390 166 -115 115 -168 243 -167 401 1 143 48 258 147 364 147 155
345 212 545 155z"/>
<path d="M7810 5811 c-158 -77 -254 -271 -221 -447 25 -140 101 -245 219 -307
176 -93 379 -62 511 78 180 190 145 505 -71 648 -75 49 -89 51 -116 17 l-22
-29 60 -32 c73 -38 123 -92 159 -168 22 -47 26 -70 26 -146 0 -78 -4 -97 -28
-147 -36 -74 -119 -150 -195 -178 -46 -18 -72 -21 -137 -18 -132 7 -232 71
-296 190 -32 60 -34 68 -34 163 0 90 3 105 28 153 36 68 92 124 160 159 l54
28 -22 31 -21 32 -54 -27z"/>
<path d="M8003 5649 c-78 -39 -88 -101 -37 -238 13 -35 24 -71 24 -81 0 -22
-31 -50 -56 -50 -28 0 -89 66 -114 123 -21 48 -27 51 -67 41 -31 -8 -29 -31 6
-98 17 -31 26 -56 21 -56 -22 0 -21 -42 1 -66 26 -28 41 -30 59 -9 12 14 15
14 32 -1 28 -26 118 -31 152 -9 63 42 70 108 26 234 -27 78 -29 87 -15 108 33
49 107 11 142 -72 16 -40 21 -45 51 -45 18 0 32 5 33 13 3 28 -4 54 -21 84
-16 27 -17 33 -4 44 21 17 17 37 -11 65 -25 25 -27 25 -50 10 -22 -14 -28 -15
-47 -2 -42 26 -80 28 -125 5z"/>
<path d="M4610 4233 c-58 -52 -48 -153 17 -182 67 -31 141 -1 163 64 36 109
-95 194 -180 118z"/>
<path d="M6057 3814 c-4 -4 -7 -15 -7 -24 0 -10 -15 -20 -43 -27 -69 -19 -97
-47 -97 -98 0 -59 35 -87 148 -120 114 -34 131 -42 139 -61 18 -48 -90 -69
-220 -42 -55 12 -60 11 -73 -7 -8 -11 -13 -24 -11 -30 5 -15 66 -34 110 -34
31 -1 39 -6 47 -27 9 -23 14 -25 57 -22 41 3 48 6 51 26 2 16 10 22 27 22 33
0 76 18 103 42 31 30 31 96 -2 127 -13 12 -74 39 -136 59 -127 41 -150 61
-111 93 27 22 93 25 171 7 47 -11 52 -10 73 10 13 14 18 25 12 31 -15 13 -75
31 -106 31 -21 0 -28 5 -31 23 -3 19 -10 22 -48 25 -25 2 -49 0 -53 -4z"/>
<path d="M9734 3846 c-12 -32 7 -36 167 -36 l160 0 -3 23 c-3 22 -6 22 -161
25 -131 2 -158 0 -163 -12z"/>
<path d="M9832 3671 c-8 -5 -12 -17 -10 -27 3 -18 15 -19 163 -19 148 0 160 1
163 19 2 10 -2 22 -10 27 -7 5 -76 9 -153 9 -77 0 -146 -4 -153 -9z"/>
<path d="M11353 3845 c-11 -31 13 -36 168 -33 146 3 154 4 154 23 0 19 -8 20
-158 23 -136 2 -158 0 -164 -13z"/>
<path d="M11272 3671 c-8 -5 -12 -17 -10 -27 3 -18 15 -19 163 -19 148 0 160
1 163 19 2 10 -2 22 -10 27 -7 5 -76 9 -153 9 -77 0 -146 -4 -153 -9z"/>
<path d="M7010 3596 c0 -13 -3 -31 -6 -40 -5 -13 1 -16 26 -16 46 0 176 -46
240 -85 68 -41 159 -135 190 -195 27 -53 37 -144 21 -193 -18 -53 -88 -113
-157 -133 -75 -22 -204 -14 -293 16 -88 31 -204 111 -257 179 -50 64 -84 144
-84 199 1 52 32 114 74 148 20 16 36 32 36 35 0 3 -16 13 -36 23 l-37 17 -33
-32 c-84 -81 -98 -225 -36 -352 151 -307 648 -431 842 -210 113 128 84 311
-73 467 -103 103 -227 166 -379 191 -35 5 -38 4 -38 -19z"/>
<path d="M7140 3455 c-9 -11 -25 -13 -66 -9 -64 8 -107 -7 -123 -42 -27 -60
-9 -94 109 -204 60 -56 79 -80 74 -93 -17 -44 -101 -22 -201 53 -57 44 -70 47
-99 26 -19 -14 -18 -15 6 -41 14 -15 44 -38 67 -52 36 -21 42 -29 37 -48 -5
-19 0 -27 25 -39 37 -20 67 -20 74 -2 4 11 15 11 56 4 92 -19 141 11 141 87 0
48 -8 59 -138 178 -28 27 -52 54 -52 61 0 18 22 36 45 36 29 0 115 -43 148
-74 29 -27 43 -31 71 -20 30 12 17 43 -34 80 -38 28 -49 41 -45 55 5 14 -3 24
-27 39 -39 24 -52 25 -68 5z"/>
<path d="M4725 3504 c-105 -22 -215 -67 -271 -109 l-32 -24 17 -34 16 -34 43
29 c86 59 238 108 336 108 140 0 274 -77 306 -175 62 -189 -213 -425 -496
-425 -160 0 -289 77 -312 185 -6 26 -9 53 -7 59 2 6 6 23 9 37 l6 27 -43 -13
c-37 -11 -42 -16 -45 -46 -14 -131 75 -248 226 -298 76 -26 238 -29 327 -6
160 40 320 156 380 275 40 78 46 185 15 258 -52 120 -196 193 -375 191 -44 -1
-89 -3 -100 -5z"/>
<path d="M4643 3370 c-15 -6 -23 -18 -23 -32 0 -16 -15 -34 -47 -58 -56 -41
-73 -82 -52 -126 22 -46 56 -56 189 -55 95 1 122 -2 134 -15 21 -21 20 -27 -8
-53 -28 -26 -93 -47 -177 -57 -51 -6 -62 -11 -72 -31 -18 -40 0 -47 85 -35 61
9 74 9 81 -3 9 -17 44 -19 82 -5 22 8 26 15 23 35 -4 19 1 26 24 36 42 17 88
74 88 109 0 72 -72 103 -211 93 -98 -7 -129 0 -129 31 0 12 8 30 18 38 23 21
116 48 163 48 41 0 66 27 55 57 -5 13 -18 15 -75 9 -56 -5 -70 -3 -75 9 -6 17
-39 19 -73 5z"/>
<path d="M9187 3234 c-13 -13 -7 -42 9 -48 24 -9 287 -7 302 3 8 5 12 17 10
27 -3 17 -16 19 -159 22 -85 1 -158 -1 -162 -4z"/>
<path d="M9272 3028 c3 -23 4 -23 163 -23 153 0 160 1 160 20 0 19 -8 20 -163
23 l-163 3 3 -23z"/>
<path d="M10807 3234 c-13 -13 -7 -42 9 -48 24 -9 287 -7 302 3 8 5 12 17 10
27 -3 17 -16 19 -159 22 -85 1 -158 -1 -162 -4z"/>
<path d="M10713 3034 c-11 -30 13 -35 168 -32 151 3 154 3 157 26 l3 22 -161
0 c-137 0 -162 -2 -167 -16z"/>
<path d="M5794 2920 c-34 -4 -83 -13 -108 -20 -46 -13 -46 -13 -40 -49 4 -20
7 -37 8 -38 1 -1 22 5 46 14 25 8 88 18 140 20 245 13 450 -115 450 -281 0
-60 -26 -110 -85 -165 -202 -186 -623 -140 -736 81 -25 49 -25 123 1 173 11
22 20 41 20 42 0 2 -20 3 -45 3 l-44 0 -17 -57 c-65 -225 168 -433 486 -433
406 0 640 336 398 572 -105 103 -295 158 -474 138z"/>
<path d="M5828 2809 c-10 -5 -18 -18 -18 -28 0 -14 -10 -20 -39 -25 -22 -3
-53 -18 -70 -32 -25 -21 -31 -33 -31 -65 0 -58 31 -82 169 -126 107 -35 116
-40 116 -63 0 -49 -84 -64 -202 -34 -60 15 -65 15 -84 -2 -39 -35 -13 -55 91
-69 34 -5 48 -12 55 -28 8 -18 18 -22 55 -22 38 0 45 3 48 21 2 16 13 24 40
29 81 15 115 47 115 107 0 56 -30 81 -141 113 -154 46 -172 59 -133 99 16 16
33 20 84 19 35 0 81 -6 101 -13 32 -10 40 -10 57 6 38 34 16 52 -83 70 -27 4
-38 11 -38 24 0 27 -58 39 -92 19z"/>
<path d="M2805 2765 c-193 -42 -377 -189 -486 -389 l-27 -49 36 -18 c19 -10
36 -18 36 -16 1 1 15 29 31 62 37 75 188 229 265 273 98 54 175 75 265 70 88
-5 125 -20 176 -70 66 -66 89 -163 65 -277 -45 -216 -247 -431 -465 -495 -159
-47 -309 14 -359 146 l-17 46 -32 -28 -31 -28 22 -49 c30 -64 110 -135 176
-156 67 -22 199 -22 271 -1 109 32 209 93 300 184 93 92 142 167 185 282 23
62 27 89 28 178 1 93 -2 111 -25 161 -71 151 -225 216 -414 174z"/>
<path d="M2700 2539 c-19 -12 -45 -30 -56 -41 -14 -13 -24 -16 -29 -9 -13 21
-53 11 -79 -20 -30 -35 -32 -51 -11 -69 12 -10 11 -17 -12 -51 -16 -24 -28
-59 -31 -89 -4 -44 -2 -52 26 -80 53 -53 111 -41 277 54 44 26 89 45 99 44 27
-4 40 -30 32 -62 -9 -35 -111 -135 -170 -166 -47 -26 -59 -54 -37 -89 12 -19
57 0 123 51 40 32 52 37 64 27 20 -16 55 0 82 39 18 25 19 32 8 48 -12 16 -10
25 15 69 40 71 40 126 0 166 -52 52 -119 39 -263 -49 -37 -23 -79 -44 -93 -48
-32 -8 -55 10 -55 43 0 30 87 125 147 160 37 22 43 29 43 59 0 29 -4 34 -22
34 -13 0 -39 -10 -58 -21z"/>
<path d="M11032 2611 c-8 -5 -12 -17 -10 -27 3 -18 16 -19 161 -22 134 -2 158
0 163 13 4 8 1 22 -6 30 -10 12 -41 15 -154 15 -77 0 -147 -4 -154 -9z"/>
<path d="M10173 2449 c-66 -21 -72 -30 -57 -85 6 -21 6 -21 44 -3 206 99 464
-4 557 -223 7 -14 17 -53 22 -85 38 -208 -121 -423 -342 -464 -175 -32 -362
68 -443 239 -45 95 -44 228 2 340 4 8 -6 12 -35 12 -48 0 -54 -10 -72 -121
-39 -235 120 -472 358 -534 349 -91 676 217 602 567 -35 167 -163 308 -326
358 -87 27 -224 26 -310 -1z"/>
<path d="M10280 2295 c0 -30 -3 -35 -22 -35 -31 0 -83 -33 -105 -66 -22 -35
-23 -121 -1 -152 25 -37 76 -70 152 -98 111 -42 143 -87 96 -134 -31 -31 -127
-30 -200 1 l-44 20 -18 -23 c-41 -54 -17 -76 114 -103 20 -4 27 -12 30 -33 3
-25 7 -27 50 -30 46 -3 47 -2 50 28 3 28 9 34 53 48 65 22 95 65 95 136 0 34
-7 62 -20 84 -20 33 -34 41 -202 115 -54 24 -58 28 -58 60 0 50 27 70 96 69
32 0 74 -8 97 -18 39 -18 39 -18 58 7 10 13 19 30 19 37 0 18 -55 49 -101 56
-35 6 -39 9 -39 36 0 29 -1 30 -50 30 l-50 0 0 -35z"/>
<path d="M2468 9992 c-25 -11 -277 -263 -744 -742 -388 -399 -715 -738 -725
-755 -23 -36 -25 -114 -5 -154 16 -30 624 -628 659 -648 33 -19 127 -16 158 5
41 27 1438 1463 1456 1497 21 37 21 111 2 148 -8 15 -158 167 -333 337 -321
312 -344 330 -411 330 -11 0 -37 -8 -57 -18z m388 -392 c169 -165 312 -307
317 -315 6 -11 3 -24 -6 -38 -8 -12 -224 -236 -478 -497 l-464 -475 -62 -15
c-60 -14 -68 -20 -166 -118 l-104 -103 -42 22 c-71 37 -142 28 -201 -26 l-25
-23 -149 143 c-131 125 -148 146 -136 160 7 8 11 17 9 19 -2 1 -31 21 -64 43
-33 22 -79 56 -102 75 l-42 36 660 678 c724 744 713 734 733 734 7 0 152 -135
322 -300z"/>
<path d="M2574 9430 c-60 -24 -73 -112 -25 -161 40 -39 89 -40 132 -1 26 24
32 36 32 72 0 74 -69 118 -139 90z"/>
<path d="M2032 9122 c-197 -71 -259 -298 -129 -474 30 -40 89 -76 154 -93 138
-37 278 26 340 153 24 49 28 69 27 137 0 91 -26 156 -86 211 -80 76 -204 102
-306 66z m108 -103 c0 -18 -5 -29 -13 -29 -25 0 -96 -59 -103 -85 -7 -29 10
-55 36 -55 10 0 42 11 72 25 92 43 161 30 188 -35 10 -25 10 -39 1 -71 -9 -30
-9 -44 -1 -54 23 -27 -27 -78 -54 -56 -8 7 -26 4 -55 -11 -44 -22 -54 -19 -65
19 -5 16 -2 23 14 28 37 12 90 65 90 91 0 42 -33 49 -98 19 -31 -14 -76 -29
-99 -32 -39 -5 -45 -3 -78 30 -39 39 -45 73 -21 119 9 16 11 30 5 33 -15 10
-10 41 11 60 15 14 23 15 34 6 11 -9 24 -6 60 13 55 29 76 25 76 -15z"/>
<path d="M1596 8434 c-20 -21 -26 -37 -26 -69 0 -59 34 -95 90 -95 55 0 79 14
96 57 18 42 5 94 -29 118 -36 25 -100 19 -131 -11z"/>
<path d="M9512 8706 c-278 -117 -423 -183 -443 -202 -34 -33 -53 -92 -43 -136
12 -58 805 -1933 827 -1956 12 -13 34 -30 49 -38 60 -31 92 -22 516 156 224
94 418 179 431 188 34 25 61 80 61 125 0 27 -109 296 -396 979 -218 518 -404
958 -414 978 -22 44 -84 80 -136 80 -28 0 -161 -52 -452 -174z m476 55 c21
-13 542 -1260 542 -1295 0 -17 -5 -50 -10 -73 -9 -40 -6 -52 47 -178 l56 -135
-41 -35 c-22 -20 -46 -51 -52 -71 -12 -35 -9 -112 4 -144 5 -12 -33 -31 -169
-88 -207 -87 -213 -89 -221 -69 -4 12 -21 6 -82 -32 -42 -27 -95 -57 -118 -69
l-40 -20 -387 921 c-352 837 -386 922 -373 941 9 14 147 78 407 188 217 91
401 167 409 167 8 0 21 -3 28 -8z"/>
<path d="M9638 8355 c-15 -9 -31 -30 -38 -50 -33 -101 78 -177 159 -109 26 22
31 33 31 71 0 83 -78 128 -152 88z"/>
<path d="M9858 7901 c-117 -47 -189 -152 -190 -274 -1 -129 54 -221 164 -276
112 -56 244 -38 337 45 67 60 95 127 95 224 1 120 -55 215 -158 267 -69 35
-180 42 -248 14z m264 -142 c10 -11 25 -19 35 -17 10 1 24 -1 31 -5 16 -10 16
-54 -1 -64 -7 -5 -12 -29 -12 -58 0 -46 -2 -50 -25 -50 -20 0 -25 6 -32 40
-19 93 -48 126 -86 99 -19 -13 -22 -25 -22 -88 0 -40 -5 -87 -11 -105 -22 -64
-115 -82 -171 -32 -18 15 -39 26 -46 24 -32 -12 -61 60 -29 73 10 3 12 21 9
64 l-4 60 29 0 c29 0 31 -2 36 -51 8 -64 35 -113 67 -117 38 -6 50 22 50 114
0 67 4 86 21 108 38 48 124 51 161 5z"/>
<path d="M10190 7089 c-69 -28 -81 -130 -21 -176 9 -7 37 -13 63 -13 40 0 50
4 72 31 35 42 35 89 -1 129 -31 33 -75 45 -113 29z"/>
<path d="M3158 8133 c-26 -29 -578 -1102 -578 -1123 0 -29 19 -43 154 -111
115 -58 126 -61 146 -48 28 18 590 1099 590 1134 0 29 -15 39 -162 115 -105
54 -127 59 -150 33z m179 -177 c3 -2 -496 -968 -503 -975 -8 -9 -114 49 -114
61 0 10 283 565 442 866 l60 113 57 -32 c31 -17 57 -32 58 -33z"/>
<path d="M2195 6570 c-23 -11 -48 -33 -58 -48 -30 -52 -687 -1955 -687 -1992
0 -43 27 -98 60 -122 33 -24 853 -308 888 -308 39 1 108 34 126 62 8 12 166
457 351 988 318 911 336 968 333 1023 -7 103 -7 103 -492 272 -230 80 -432
145 -450 145 -17 0 -49 -9 -71 -20z m470 -226 c215 -74 400 -142 413 -150 12
-8 22 -24 22 -36 0 -15 -387 -1143 -435 -1270 -4 -9 -31 -35 -60 -58 -53 -41
-54 -42 -100 -179 l-47 -138 -47 5 c-35 3 -58 -1 -89 -17 -40 -20 -92 -82 -92
-108 0 -7 -3 -13 -7 -13 -5 0 -95 30 -201 67 -160 55 -191 70 -187 84 5 14 -8
19 -82 33 -49 8 -107 21 -130 28 l-41 13 323 929 c178 511 329 933 337 937 7
5 18 9 23 9 6 0 186 -61 400 -136z"/>
<path d="M2493 6076 c-39 -34 -40 -103 -2 -142 45 -45 133 -32 158 23 46 100
-72 191 -156 119z"/>
<path d="M2240 5631 c-168 -51 -254 -255 -177 -414 57 -115 160 -173 291 -165
157 10 262 117 273 278 9 122 -50 225 -159 279 -52 26 -72 31 -132 30 -39 0
-82 -4 -96 -8z m21 -115 c10 -20 7 -29 -15 -58 -37 -49 -50 -92 -36 -117 19
-36 54 -26 100 29 65 78 118 97 179 65 28 -14 51 -58 51 -97 0 -10 7 -21 15
-24 30 -12 14 -74 -19 -74 -12 0 -33 -15 -49 -35 -32 -40 -51 -44 -67 -15 -9
16 -6 27 15 53 45 60 43 127 -4 127 -9 0 -45 -29 -79 -65 -57 -59 -67 -65
-103 -65 -73 0 -108 31 -109 98 0 30 -4 42 -14 42 -22 0 -27 15 -16 44 7 18
17 26 34 26 15 0 27 7 31 19 7 24 51 71 65 71 6 0 15 -11 21 -24z"/>
<path d="M2047 4790 c-49 -39 -41 -131 12 -160 27 -14 92 -12 112 3 45 35 52
110 14 151 -31 34 -99 37 -138 6z"/>
<path d="M9840 5543 c-83 -16 -131 -30 -144 -43 -18 -18 -17 -31 98 -636 64
-340 122 -624 128 -631 15 -19 66 -16 202 11 118 23 136 32 136 71 0 11 -51
292 -114 625 -118 624 -120 632 -165 629 -9 -1 -72 -12 -141 -26z m100 -102
c0 -5 45 -248 101 -541 75 -402 97 -535 88 -541 -13 -8 -119 -23 -123 -17 -4
4 -197 1037 -199 1062 -2 19 19 27 126 45 4 0 7 -3 7 -8z"/>
<path d="M432 1328 c-20 -20 -14 -65 10 -82 19 -14 74 -16 398 -16 324 0 379
2 398 16 24 16 28 44 12 75 -10 18 -25 19 -408 19 -296 0 -401 -3 -410 -12z"/>
</g>
</svg>
